<svg width="12" height="10" viewBox="0 0 12 10" fill="none" xmlns="http://www.w3.org/2000/svg">
<path d="M5.73077 0.177339C5.89662 -0.0591129 6.28484 -0.059113 6.4507 0.177339L8.2009 2.6726C8.25925 2.7558 8.35195 2.8155 8.45924 2.83898L11.6773 3.54341C11.9822 3.61016 12.1022 3.93745 11.8997 4.15034L9.7634 6.39692C9.69217 6.47182 9.65677 6.56842 9.66472 6.66613L9.90337 9.59676C9.92598 9.87446 9.6119 10.0767 9.32093 9.97186L6.2504 8.86506C6.14802 8.82816 6.03344 8.82816 5.93107 8.86506L2.86053 9.97186C2.56957 10.0767 2.25548 9.87446 2.2781 9.59676L2.51674 6.66613C2.5247 6.56842 2.48929 6.47182 2.41806 6.39692L0.281722 4.15034C0.0792822 3.93745 0.199251 3.61016 0.504192 3.54341L3.72222 2.83898C3.82951 2.8155 3.92221 2.7558 3.98056 2.6726L5.73077 0.177339Z" fill="white"/>
</svg>
